<svg width="1200" height="670" viewBox="0 0 1200 670" fill="none" xmlns="http://www.w3.org/2000/svg">
<path fill-rule="evenodd" clip-rule="evenodd" d="M0 640V202C0 185.431 13.4315 172 30 172H257.725C274.294 172 287.725 158.569 287.725 142V30C287.725 13.4315 301.157 0 317.725 0H1170C1186.57 0 1200 13.4315 1200 30V440C1200 456.569 1186.57 470 1170 470H1151.44C1134.87 470 1121.44 483.431 1121.44 500V640C1121.44 656.569 1108.01 670 1091.44 670H30C13.4314 670 0 656.569 0 640Z" fill="#15284A"/>
</svg>
