<svg width="17" height="16" viewBox="0 0 17 16" fill="none" xmlns="http://www.w3.org/2000/svg">
<path d="M6.35742 7.3335H5.02409V8.66683H6.35742V7.3335ZM9.02409 7.3335H7.69076V8.66683H9.02409V7.3335ZM11.6908 7.3335H10.3574V8.66683H11.6908V7.3335ZM13.0241 2.66683H12.3574V1.3335H11.0241V2.66683H5.69076V1.3335H4.35742V2.66683H3.69076C2.95076 2.66683 2.36409 3.26683 2.36409 4.00016L2.35742 13.3335C2.35742 13.6871 2.4979 14.0263 2.74795 14.2763C2.99799 14.5264 3.33713 14.6668 3.69076 14.6668H13.0241C13.7574 14.6668 14.3574 14.0668 14.3574 13.3335V4.00016C14.3574 3.26683 13.7574 2.66683 13.0241 2.66683ZM13.0241 13.3335H3.69076V6.00016H13.0241V13.3335Z" fill="#15284A"/>
</svg>
