<svg width="13" height="8" viewBox="0 0 13 8" fill="none" xmlns="http://www.w3.org/2000/svg">
<path fill-rule="evenodd" clip-rule="evenodd" d="M0.146894 0.645917C0.19334 0.599354 0.248515 0.562411 0.30926 0.537204C0.370005 0.511998 0.435127 0.499023 0.500894 0.499023C0.566661 0.499023 0.631782 0.511998 0.692528 0.537204C0.753273 0.562411 0.808448 0.599354 0.854894 0.645917L6.50089 6.29292L12.1469 0.645917C12.1934 0.599429 12.2486 0.562553 12.3093 0.537394C12.37 0.512234 12.4352 0.499285 12.5009 0.499285C12.5666 0.499285 12.6317 0.512234 12.6925 0.537394C12.7532 0.562553 12.8084 0.599429 12.8549 0.645917C12.9014 0.692405 12.9383 0.747594 12.9634 0.808333C12.9886 0.869073 13.0015 0.934173 13.0015 0.999917C13.0015 1.06566 12.9886 1.13076 12.9634 1.1915C12.9383 1.25224 12.9014 1.30743 12.8549 1.35392L6.85489 7.35392C6.80845 7.40048 6.75327 7.43742 6.69253 7.46263C6.63178 7.48784 6.56666 7.50081 6.50089 7.50081C6.43513 7.50081 6.37001 7.48784 6.30926 7.46263C6.24852 7.43742 6.19334 7.40048 6.14689 7.35392L0.146894 1.35392C0.100331 1.30747 0.0633878 1.2523 0.0381813 1.19155C0.0129749 1.13081 0 1.06568 0 0.999917C0 0.93415 0.0129749 0.869028 0.0381813 0.808283C0.0633878 0.747538 0.100331 0.692363 0.146894 0.645917Z" fill="white"/>
</svg>
