<svg width="355" height="96" viewBox="0 0 355 96" fill="none" xmlns="http://www.w3.org/2000/svg">
<path d="M354.241 10C354.241 4.47715 349.764 0 344.241 0H10C4.47715 0 0 4.47715 0 10V86C0 91.5229 4.47715 96 10 96H305.089C307.334 96 309.515 95.2443 311.278 93.8545L350.43 63.0028C352.837 61.1066 354.241 58.212 354.241 55.1484V10Z" fill="white" fill-opacity="0.3"/>
<path d="M10 0.5H344.241C349.488 0.500132 353.741 4.75338 353.741 10V55.1484C353.741 57.968 352.489 60.6367 350.332 62.4385L350.121 62.6104L310.969 93.4619C309.293 94.7822 307.222 95.5 305.089 95.5H10C4.7533 95.5 0.5 91.2467 0.5 86V10C0.500001 4.7533 4.7533 0.5 10 0.5Z" stroke="url(#paint0_linear_59_1703)" stroke-opacity="0.7"/>
<defs>
<linearGradient id="paint0_linear_59_1703" x1="38.9665" y1="9.03667" x2="57.513" y2="138.506" gradientUnits="userSpaceOnUse">
<stop stop-color="#15BFFD"/>
<stop offset="1" stop-color="#9C37FD"/>
</linearGradient>
</defs>
</svg>
