<svg width="43" height="43" viewBox="0 0 43 43" fill="none" xmlns="http://www.w3.org/2000/svg">
<path d="M15.3551 33.1131C15.7226 32.8978 16.1242 32.6878 16.5599 32.4883C16.1918 33.0372 15.7976 33.568 15.3787 34.0791C14.6437 34.9637 14.0714 35.4336 13.7118 35.5806C13.682 35.5932 13.6513 35.6037 13.6199 35.6121C13.5937 35.5757 13.5709 35.5371 13.5517 35.4966C13.4047 35.2078 13.4099 34.9296 13.6567 34.5516C13.9349 34.1185 14.4941 33.6223 15.3551 33.1131ZM21.7994 28.7897C21.4871 28.8553 21.1773 28.921 20.8649 28.9945C21.3276 28.0879 21.7653 27.1688 22.1774 26.2382C22.5924 27.0071 23.039 27.7585 23.5162 28.4905C22.9466 28.5745 22.3717 28.6742 21.7994 28.7897ZM28.4276 31.2546C28.0198 30.9257 27.6381 30.5659 27.2857 30.1783C27.8842 30.1915 28.4249 30.2361 28.8922 30.3201C29.7243 30.4697 30.1154 30.706 30.2519 30.8687C30.295 30.9142 30.3193 30.9741 30.3202 31.0367C30.311 31.2219 30.2569 31.4021 30.1627 31.5617C30.1098 31.6896 30.0248 31.8017 29.9159 31.8872C29.8618 31.9205 29.7979 31.9343 29.7348 31.9266C29.4986 31.9187 29.0576 31.7533 28.4276 31.2546ZM22.5869 18.7963C22.4819 19.4368 22.3034 20.1718 22.0619 20.9725C21.973 20.6727 21.895 20.3697 21.8283 20.0642C21.6288 19.1376 21.5999 18.4105 21.7076 17.9065C21.8073 17.4418 21.9963 17.2555 22.2221 17.1636C22.3431 17.1102 22.4714 17.0749 22.6027 17.0586C22.6368 17.1373 22.6762 17.3001 22.6867 17.5783C22.6998 17.8986 22.6683 18.3055 22.5869 18.799V18.7963Z" fill="white"/>
<path fill-rule="evenodd" clip-rule="evenodd" d="M11.3574 0.5H25.2515C25.9477 0.500149 26.6153 0.776808 27.1074 1.26913L36.8383 11C37.3306 11.4922 37.6073 12.1597 37.6074 12.8559V37.25C37.6074 38.6424 37.0543 39.9777 36.0697 40.9623C35.0852 41.9469 33.7498 42.5 32.3574 42.5H11.3574C9.96504 42.5 8.62968 41.9469 7.64511 40.9623C6.66055 39.9777 6.10742 38.6424 6.10742 37.25V5.75C6.10742 4.35761 6.66055 3.02226 7.64511 2.03769C8.62968 1.05312 9.96504 0.5 11.3574 0.5ZM25.7949 4.4375V9.6875C25.7949 10.3837 26.0715 11.0514 26.5638 11.5437C27.056 12.0359 27.7237 12.3125 28.4199 12.3125H33.6699L25.7949 4.4375ZM11.7905 36.3785C12.0268 36.851 12.3943 37.2789 12.9403 37.4784C13.4837 37.6753 14.0218 37.5834 14.4628 37.3996C15.2975 37.0584 16.1297 36.2551 16.8935 35.3364C17.7677 34.2837 18.6864 32.903 19.5737 31.3726C21.2866 30.8649 23.0406 30.5083 24.8158 30.3069C25.6033 31.3122 26.417 32.1785 27.2045 32.8006C27.9395 33.3781 28.7874 33.8585 29.6563 33.8952C30.1296 33.9187 30.5982 33.7919 30.995 33.533C31.4019 33.2679 31.7038 32.8846 31.9243 32.441C32.1605 31.9659 32.3049 31.4697 32.2865 30.9631C32.2699 30.4636 32.0849 29.9844 31.7615 29.6034C31.1683 28.8946 30.197 28.5534 29.2415 28.3827C28.0825 28.2032 26.9064 28.1592 25.7372 28.2515C24.7498 26.8557 23.8889 25.3745 23.1647 23.8257C23.8209 22.0932 24.3118 20.4552 24.5297 19.1165C24.6242 18.5443 24.674 17.9983 24.6557 17.5048C24.6524 17.0149 24.5384 16.5321 24.3223 16.0925C24.1978 15.8499 24.0208 15.638 23.8042 15.4723C23.5876 15.3066 23.3369 15.1912 23.0702 15.1344C22.5399 15.0215 21.9939 15.1344 21.4925 15.3365C20.5029 15.7303 19.9805 16.5702 19.7837 17.4969C19.592 18.3894 19.6787 19.4289 19.9044 20.4789C20.1354 21.5446 20.5292 22.7049 21.0332 23.8783C20.227 25.8832 19.2959 27.8357 18.2454 29.7241C16.8926 30.1498 15.5886 30.7173 14.3552 31.4172C13.3839 31.9947 12.5203 32.6772 12.0005 33.4831C11.4493 34.3389 11.2787 35.3574 11.7905 36.3785Z" fill="white"/>
</svg>
