<svg xmlns="http://www.w3.org/2000/svg" xmlns:xlink="http://www.w3.org/1999/xlink" viewBox="0,0,256,256" width="100px" height="100px" fill-rule="nonzero"><g fill="#ffffff" fill-rule="nonzero" stroke="none" stroke-width="1" stroke-linecap="butt" stroke-linejoin="miter" stroke-miterlimit="10" stroke-dasharray="" stroke-dashoffset="0" font-family="none" font-weight="none" font-size="none" text-anchor="none" style="mix-blend-mode: normal"><g transform="scale(5.12,5.12)"><path d="M28.875,0c-0.01953,0.00781 -0.04297,0.01953 -0.0625,0.03125l-28,5.3125c-0.47656,0.08984 -0.82031,0.51172 -0.8125,1v37.3125c-0.00781,0.48828 0.33594,0.91016 0.8125,1l28,5.3125c0.28906,0.05469 0.58984,-0.01953 0.82031,-0.20703c0.22656,-0.1875 0.36328,-0.46484 0.36719,-0.76172v-5h17c1.09375,0 2,-0.90625 2,-2v-34c0,-1.09375 -0.90625,-2 -2,-2h-17v-5c0.00391,-0.28906 -0.12109,-0.5625 -0.33594,-0.75391c-0.21484,-0.19141 -0.50391,-0.28125 -0.78906,-0.24609zM28,2.1875v4.5c-0.05859,0.19531 -0.05859,0.39844 0,0.59375v35.53125c-0.02734,0.13281 -0.02734,0.27344 0,0.40625v4.59375l-26,-4.96875v-35.6875zM30,8h17v34h-17v-5h10v-2h-10v-5.5625c0.92188,0.36719 1.94922,0.5625 3,0.5625c4.40625,0 8,-3.59375 8,-8v-1h-7v-7h-1c-1.05859,0 -2.07031,0.19141 -3,0.5625zM35,11v9h9v-1c0,-4.40625 -3.59375,-8 -8,-8zM37,13.1875c2.49219,0.42969 4.38281,2.32031 4.8125,4.8125h-4.8125zM8.15625,15.65625v18.71875h4.21875v-6.4375h2c2.26172,0 4.08594,-0.58984 5.4375,-1.75c1.35156,-1.16016 2.03125,-2.68359 2.03125,-4.5625c0,-3.97656 -2.37891,-5.96875 -7.09375,-5.96875zM32,16.25v6.75h6.8125c-0.48828,2.82813 -2.83984,5 -5.8125,5c-1.04687,0 -2.01953,-0.28125 -2.875,-0.75c-0.03906,-0.02344 -0.08203,-0.04297 -0.125,-0.0625v-10.375c0.03125,-0.01953 0.0625,-0.03906 0.09375,-0.0625c0.56641,-0.31641 1.24609,-0.38281 1.90625,-0.5zM12.375,18.90625h1.65625c2.24219,0 3.375,0.95313 3.375,2.875c0,1.96484 -1.13281,2.9375 -3.375,2.9375h-1.65625z"></path></g></g></svg>