<svg width="1200" height="474" viewBox="0 0 1200 474" fill="none" xmlns="http://www.w3.org/2000/svg">
<path d="M1200 444C1200 460.569 1186.57 474 1170 474H30C13.4315 474 0 460.569 0 444V30C0 13.4315 13.4314 0 30 0H1085.98C1094.31 0 1102.26 3.4574 1107.93 9.54575L1191.95 99.6879C1197.12 105.241 1200 112.551 1200 120.142V444Z" fill="#15284A"/>
<path d="M30 473.5H1170C1186.29 473.5 1199.5 460.292 1199.5 444V120.143C1199.5 112.911 1196.84 105.939 1192.05 100.546L1191.58 100.028L1107.57 9.88672C1101.99 3.89996 1094.17 0.500135 1085.99 0.5H30C13.7076 0.5 0.5 13.7076 0.5 30V444C0.5 460.292 13.7076 473.5 30 473.5Z" stroke="url(#paint0_linear_59_1887)" stroke-opacity="0.7"/>
<defs>
<linearGradient id="paint0_linear_59_1887" x1="132" y1="429.381" x2="262.522" y2="-195.74" gradientUnits="userSpaceOnUse">
<stop stop-color="#15BFFD"/>
<stop offset="1" stop-color="#9C37FD"/>
</linearGradient>
</defs>
</svg>
