<svg width="374" height="374" viewBox="0 0 374 374" fill="none" xmlns="http://www.w3.org/2000/svg">
<path d="M369.288 187C371.89 187 374.006 184.889 373.941 182.288C373.05 146.95 362.159 112.553 342.485 83.1084C321.937 52.3564 292.732 28.3881 258.562 14.2345C224.392 0.0809399 186.793 -3.62228 150.518 3.59315C114.244 10.8086 80.9234 28.6186 54.771 54.771C28.6186 80.9235 10.8086 114.244 3.59315 150.518C-3.62228 186.793 0.0809403 224.392 14.2345 258.562C28.3881 292.732 52.3564 321.937 83.1084 342.485C112.553 362.159 146.95 373.05 182.288 373.941C184.889 374.006 187 371.89 187 369.288C187 366.685 184.889 364.582 182.288 364.513C148.815 363.625 116.239 353.287 88.3444 334.649C59.1422 315.136 36.382 287.403 22.9417 254.955C9.50142 222.508 5.98484 186.803 12.8366 152.357C19.6884 117.91 36.6008 86.2696 61.4352 61.4352C86.2696 36.6008 117.91 19.6884 152.357 12.8366C186.803 5.98484 222.508 9.50142 254.955 22.9417C287.403 36.382 315.136 59.1422 334.649 88.3444C353.287 116.239 363.625 148.815 364.513 182.288C364.582 184.889 366.685 187 369.288 187Z" fill="url(#paint0_linear_28_295)" fill-opacity="0.7"/>
<path d="M43.2646 179.878C41.2125 179.777 39.4616 181.358 39.4116 183.412C38.7333 211.311 45.9771 238.859 60.3401 262.845C75.3408 287.896 97.4331 307.936 123.823 320.431C150.213 332.926 179.716 337.315 208.601 333.042C237.485 328.77 264.454 316.029 286.097 296.429C307.74 276.829 323.085 251.252 330.192 222.931C337.298 194.61 335.847 164.818 326.022 137.322C316.197 109.826 298.439 85.8612 274.993 68.4577C252.545 51.7941 225.847 41.8626 198.019 39.7799C195.97 39.6266 194.223 41.2126 194.121 43.2647C194.019 45.3168 195.602 47.0577 197.65 47.2138C224.009 49.2219 249.291 58.6456 270.558 74.4321C292.822 90.9585 309.685 113.716 319.015 139.826C328.346 165.936 329.724 194.227 322.975 221.12C316.227 248.014 301.655 272.302 281.103 290.914C260.551 309.526 234.941 321.625 207.512 325.682C180.083 329.739 152.067 325.571 127.007 313.706C101.947 301.841 80.9682 282.81 66.7236 259.022C53.1167 236.299 46.2382 210.209 46.8454 183.781C46.8926 181.726 45.3167 179.98 43.2646 179.878Z" fill="url(#paint1_linear_28_295)" fill-opacity="0.7"/>
<path d="M277.298 201.122C278.588 201.324 279.799 200.442 279.968 199.148C282.265 181.574 279.535 163.691 272.07 147.581C264.274 130.756 251.663 116.62 235.833 106.962C220.003 97.3037 201.665 92.5563 183.137 93.3203C164.609 94.0843 146.723 100.325 131.742 111.254C116.761 122.183 105.358 137.309 98.973 154.719C92.5885 172.129 91.51 191.041 95.874 209.064C100.238 227.087 109.848 243.411 123.49 255.972C136.551 268 152.747 276.059 170.183 279.238C171.466 279.472 172.676 278.588 172.877 277.298C173.079 276.009 172.196 274.804 170.913 274.568C154.401 271.535 139.065 263.89 126.691 252.496C113.737 240.568 104.611 225.067 100.467 207.952C96.3226 190.838 97.3467 172.878 103.409 156.346C109.472 139.813 120.301 125.45 134.527 115.072C148.753 104.694 165.737 98.7671 183.332 98.0417C200.926 97.3162 218.34 101.824 233.372 110.996C248.404 120.167 260.379 133.591 267.783 149.568C274.854 164.83 277.451 181.768 275.298 198.418C275.131 199.712 276.009 200.92 277.298 201.122Z" fill="url(#paint2_linear_28_295)" fill-opacity="0.7"/>
<defs>
<linearGradient id="paint0_linear_28_295" x1="41.14" y1="35.2054" x2="253.807" y2="437.533" gradientUnits="userSpaceOnUse">
<stop stop-color="#15BFFD"/>
<stop offset="1" stop-color="#15284A"/>
</linearGradient>
<linearGradient id="paint1_linear_28_295" x1="71.847" y1="67.1619" x2="239.742" y2="384.789" gradientUnits="userSpaceOnUse">
<stop stop-color="#15BFFD"/>
<stop offset="1" stop-color="#15284A"/>
</linearGradient>
<linearGradient id="paint2_linear_28_295" x1="113.868" y1="110.892" x2="220.496" y2="312.613" gradientUnits="userSpaceOnUse">
<stop stop-color="#15BFFD"/>
<stop offset="1" stop-color="#15284A"/>
</linearGradient>
</defs>
</svg>
