<svg width="51" height="45" viewBox="0 0 51 45" fill="none" xmlns="http://www.w3.org/2000/svg">
<path fill-rule="evenodd" clip-rule="evenodd" d="M0 6.78571C0 5.11864 0.67165 3.51984 1.86719 2.34104C3.06274 1.16224 4.68424 0.5 6.375 0.5H49.4062C49.8289 0.5 50.2343 0.665561 50.5332 0.960261C50.8321 1.25496 51 1.65466 51 2.07143C51 2.4882 50.8321 2.8879 50.5332 3.1826C50.2343 3.4773 49.8289 3.64286 49.4062 3.64286H47.8125V9.92857C48.6579 9.92857 49.4686 10.2597 50.0664 10.8491C50.6642 11.4385 51 12.2379 51 13.0714V39.7857C51 41.036 50.4963 42.2351 49.5996 43.1192C48.7029 44.0033 47.4868 44.5 46.2188 44.5H7.96875C5.85531 44.5 3.82842 43.6722 2.33399 42.1987C0.839562 40.7252 0 38.7267 0 36.6429L0 6.78571ZM3.1875 12.2291V36.6429C3.1875 37.8932 3.69124 39.0923 4.5879 39.9764C5.48455 40.8605 6.70068 41.3571 7.96875 41.3571H46.2188C46.6414 41.3571 47.0468 41.1916 47.3457 40.8969C47.6446 40.6022 47.8125 40.2025 47.8125 39.7857V13.0714H6.375C5.25574 13.0729 4.15602 12.7823 3.1875 12.2291ZM3.1875 6.78571C3.1875 7.61925 3.52332 8.41865 4.1211 9.00805C4.71887 9.59745 5.52962 9.92857 6.375 9.92857H44.625V3.64286H6.375C5.52962 3.64286 4.71887 3.97398 4.1211 4.56338C3.52332 5.15278 3.1875 5.95218 3.1875 6.78571Z" fill="#15BFFD"/>
</svg>
