<svg width="801" height="680" viewBox="0 0 801 680" fill="none" xmlns="http://www.w3.org/2000/svg">
<path d="M801 650C801 666.569 787.569 680 771 680H30C13.4315 680 0 666.569 0 650V29.9999C0 13.4314 13.4315 -6.10352e-05 30 -6.10352e-05H683.752C692.595 -6.10352e-05 700.987 3.90088 706.687 10.6608L793.935 114.129C798.497 119.54 801 126.39 801 133.468V650Z" fill="white"/>
<path d="M30 679.5H771C787.292 679.5 800.5 666.292 800.5 650V133.468C800.5 126.725 798.19 120.193 793.967 114.954L793.553 114.451L706.305 10.9834C700.7 4.33618 692.447 0.5 683.752 0.5H30C13.7076 0.500007 0.5 13.7076 0.5 30V650C0.5 666.292 13.7076 679.5 30 679.5Z" stroke="url(#paint0_linear_59_1548)" stroke-opacity="0.7"/>
<defs>
<linearGradient id="paint0_linear_59_1548" x1="88.11" y1="615.99" x2="437.691" y2="-163.032" gradientUnits="userSpaceOnUse">
<stop stop-color="#15BFFD"/>
<stop offset="1" stop-color="#9C37FD"/>
</linearGradient>
</defs>
</svg>
