<svg width="305" height="277" viewBox="0 0 305 277" fill="none" xmlns="http://www.w3.org/2000/svg">
<mask id="path-1-inside-1_59_1952" fill="white">
<path d="M64.1458 0C76.4286 0 85 12.7172 85 25C85 62.5554 115.445 93 153 93C190.555 93 221 62.5554 221 25C221 12.7172 229.571 0 241.854 0H275C291.569 2.41334e-06 305 13.4315 305 30V214.472C305 222.326 301.919 229.867 296.42 235.476L264.523 268.004C258.881 273.758 251.162 277 243.104 277H30C13.4315 277 3.35724e-06 263.569 0 247V30C0 13.4315 13.4315 9.39986e-08 30 0H64.1458Z"/>
</mask>
<path d="M64.1458 0C76.4286 0 85 12.7172 85 25C85 62.5554 115.445 93 153 93C190.555 93 221 62.5554 221 25C221 12.7172 229.571 0 241.854 0H275C291.569 2.41334e-06 305 13.4315 305 30V214.472C305 222.326 301.919 229.867 296.42 235.476L264.523 268.004C258.881 273.758 251.162 277 243.104 277H30C13.4315 277 3.35724e-06 263.569 0 247V30C0 13.4315 13.4315 9.39986e-08 30 0H64.1458Z" fill="white"/>
<path d="M275 0V-1V0ZM305 214.472H306H305ZM296.42 235.476L295.706 234.775L296.42 235.476ZM264.523 268.004L265.237 268.704L264.523 268.004ZM243.104 277V278V277ZM0 247H-1H0ZM30 0V-1V0ZM85 25H84C84 63.1077 114.892 94 153 94V93V92C115.997 92 86 62.0031 86 25H85ZM153 93V94C191.108 94 222 63.1077 222 25H221H220C220 62.0031 190.003 92 153 92V93ZM241.854 0V1H275V0V-1H241.854V0ZM275 0V1C291.016 1 304 13.9837 304 30H305H306C306 12.8792 292.121 -0.999997 275 -1V0ZM305 30H304V214.472H305H306V30H305ZM305 214.472H304C304 222.064 301.022 229.354 295.706 234.775L296.42 235.476L297.134 236.176C302.816 230.381 306 222.588 306 214.472H305ZM296.42 235.476L295.706 234.775L263.809 267.304L264.523 268.004L265.237 268.704L297.134 236.176L296.42 235.476ZM264.523 268.004L263.809 267.304C258.355 272.866 250.893 276 243.104 276V277V278C251.431 278 259.407 274.65 265.237 268.704L264.523 268.004ZM243.104 277V276H30V277V278H243.104V277ZM30 277V276C13.9837 276 1 263.016 1 247H0H-1C-0.999997 264.121 12.8792 278 30 278V277ZM0 247H1V30H0H-1V247H0ZM0 30H1C1 13.9837 13.9837 1 30 1V0V-1C12.8792 -1 -1 12.8792 -1 30H0ZM30 0V1H64.1458V0V-1H30V0ZM221 25H222C222 19.0777 224.071 13.045 227.609 8.50905C231.142 3.98054 236.086 1 241.854 1V0V-1C235.339 -1 229.856 2.37805 226.033 7.27883C222.215 12.1721 220 18.6395 220 25H221ZM85 25H86C86 18.6394 83.785 12.1721 79.9674 7.27882C76.144 2.37804 70.6608 -1 64.1458 -1V0V1C69.9137 1 74.8576 3.98054 78.3905 8.50905C81.9293 13.045 84 19.0777 84 25H85Z" fill="url(#paint0_linear_59_1952)" fill-opacity="0.7" mask="url(#path-1-inside-1_59_1952)"/>
<defs>
<linearGradient id="paint0_linear_59_1952" x1="33.55" y1="26.0746" x2="182.291" y2="335.909" gradientUnits="userSpaceOnUse">
<stop stop-color="#15BFFD"/>
<stop offset="1" stop-color="#9C37FD"/>
</linearGradient>
</defs>
</svg>
