<svg width="481" height="311" viewBox="0 0 481 311" fill="none" xmlns="http://www.w3.org/2000/svg">
<path d="M480.831 281C480.831 297.569 467.399 311 450.831 311H30C13.4315 311 0 297.569 0 281V30.5617C0 13.9932 13.4315 0.561707 30 0.561707H406.205C414.961 0.561707 423.28 4.3873 428.979 11.0347L473.605 63.0833C478.268 68.5211 480.831 75.4475 480.831 82.6103V281Z" fill="white"/>
<path d="M450.831 310.5C467.123 310.5 480.331 297.292 480.331 281V82.6103C480.331 75.5669 477.81 68.7559 473.226 63.4088L428.6 11.3602C422.995 4.82355 414.815 1.06171 406.205 1.06171H30C13.7076 1.06171 0.5 14.2693 0.5 30.5617V281C0.5 297.292 13.7076 310.5 30 310.5H450.831Z" stroke="url(#paint0_linear_143_324)" stroke-opacity="0.7"/>
<defs>
<linearGradient id="paint0_linear_143_324" x1="52.8914" y1="281.778" x2="183.494" y2="-100.912" gradientUnits="userSpaceOnUse">
<stop stop-color="#15BFFD"/>
<stop offset="1" stop-color="#9C37FD"/>
</linearGradient>
</defs>
</svg>
